<svg width="180" height="266" viewBox="0 0 180 266" fill="none" xmlns="http://www.w3.org/2000/svg">
<path d="M178.704 121.335C175.202 100.375 156.95 84.4022 134.962 84.4022H45.0419C23.0624 84.4022 4.81523 100.362 1.30072 121.31C0.895057 123.705 0.685791 126.169 0.685791 128.68V206.89C0.685791 209.401 0.895057 211.861 1.30072 214.256C4.09782 230.945 16.2512 244.471 32.1967 249.276C36.262 250.503 40.5751 251.164 45.0419 251.164H134.962C139.429 251.164 143.742 250.503 147.808 249.276C163.757 244.467 175.915 230.933 178.704 214.231C179.105 211.844 179.314 209.393 179.314 206.89V128.68C179.314 126.178 179.105 123.723 178.704 121.335ZM142.572 249.276C140.1 249.715 137.559 249.945 134.962 249.945H45.0419C42.4455 249.945 39.9046 249.715 37.4321 249.276C17.2419 245.69 1.91141 228.077 1.91141 206.89V180.93C1.91141 107.575 61.4784 85.6256 134.962 85.6256C158.782 85.6256 178.093 104.902 178.093 128.68V206.89C120.268 214.615 162.762 245.69 142.572 249.276Z" fill="#3F3D56"/>
<path d="M107.895 143.421L111.355 165.868L162.093 158.961L157.192 132.735L107.895 143.421Z" fill="#009EDD"/>
<path d="M147.716 17.4636H126.738V39.1398H147.716V17.4636Z" fill="#2F2E41"/>
<path d="M128.652 40.3962L133.841 24.8562H143.956L144.487 40.3962H128.652Z" fill="#FFB6B6"/>
<path opacity="0.1" d="M128.652 40.3962L133.841 24.8562H143.956L144.487 40.3962H128.652Z" fill="black"/>
<path d="M134.129 178.818L133.553 238.676L132.976 243.28V249.89L141.625 250.762L142.201 237.524C142.201 237.524 151.427 211.624 149.12 191.48C146.814 171.335 147.967 177.091 147.967 177.091L134.129 178.818Z" fill="#FFB6B6"/>
<path d="M139.62 183.518L118.343 239.485L117.202 243.983L114.794 250.14L106.42 247.812L110.707 235.272C110.707 235.272 111.552 207.796 121.041 189.869C130.531 171.943 127.359 176.885 127.359 176.885L139.62 183.518Z" fill="#FFB6B6"/>
<path d="M128.652 38.6696L113.085 45.5763L123.024 96.8078L121.454 170.338L111.076 192.21C111.076 192.21 109.337 204.718 127.211 196.66C145.084 188.602 165.264 186.3 165.264 186.3L160.363 152.63L156.039 64.2819L156.616 44.7129L143.931 36.6552L128.652 38.6696V38.6696Z" fill="#2F2E41"/>
<path d="M119.982 193.009L102.706 164.141L122.448 96.8077L113.085 45.5763L129.511 38.5563C129.511 38.5563 138.015 46.8227 138.015 53.641C138.015 60.4593 119.982 193.009 119.982 193.009Z" fill="#E6E6E6"/>
<path d="M157.459 187.253L141.778 52.7872C141.58 51.0893 141.87 49.3702 142.615 47.831L147.102 38.5563L164.688 43.5618L157.619 98.5344L176.507 152.63L157.459 187.253H157.459Z" fill="#E6E6E6"/>
<path d="M143.355 249.611C143.355 249.611 132.4 243.28 131.247 246.733C130.093 250.187 129.517 253.064 129.517 253.064C129.517 253.064 126.634 264 135.283 264C143.931 264 143.355 259.026 143.355 259.026V249.611Z" fill="#2F2E41"/>
<path d="M105.228 246.111C105.228 246.111 117.74 244.192 117.555 247.828C117.371 251.463 116.859 254.353 116.859 254.353C116.859 254.353 115.559 265.586 107.503 262.446C99.4474 259.305 101.797 254.882 101.797 254.882L105.228 246.111Z" fill="#2F2E41"/>
<path d="M139.573 33.314C147.489 33.314 153.906 26.908 153.906 19.0057C153.906 11.1035 147.489 4.69745 139.573 4.69745C131.657 4.69745 125.239 11.1035 125.239 19.0057C125.239 26.908 131.657 33.314 139.573 33.314Z" fill="#FFB6B6"/>
<path d="M151.024 6.25495C150.357 2.72716 146.73 0.34103 143.146 0.0418153C139.562 -0.257399 136.051 1.09351 132.824 2.67741C130.636 3.7511 128.482 4.96128 126.71 6.63253C124.937 8.30378 123.561 10.487 123.243 12.8998C123.131 13.7535 123.145 14.6454 122.795 15.4324C122.358 16.4154 121.419 17.083 120.853 17.998C119.837 19.6389 120.303 22.0261 121.863 23.1651C119.903 23.9991 117.888 24.8691 116.394 26.3857C114.899 27.9022 114.036 30.2437 114.856 32.2072C115.146 32.9019 115.626 33.51 115.874 34.2207C116.345 35.5704 115.897 37.1038 115.061 38.2645C114.226 39.4253 113.047 40.286 111.889 41.1263C114.865 41.7087 117.903 42.1624 120.924 41.8907C123.945 41.6191 126.976 40.5623 129.164 38.4652C131.351 36.368 132.554 33.133 131.77 30.2086C131.169 27.9683 129.487 26.0053 129.488 23.686C129.489 21.9033 130.493 20.2951 131.463 18.798L137.816 8.9894C138.197 8.40127 138.599 7.79267 139.2 7.43295C140.225 6.82098 141.553 7.0901 142.632 7.59803C143.712 8.10597 144.698 8.83471 145.849 9.14965C148.199 9.79241 150.924 8.31631 151.664 5.99985" fill="#2F2E41"/>
<path d="M142.558 35.3537C141.363 36.5083 139.642 36.8802 138.047 37.3481C136.451 37.816 134.754 38.5518 134.037 40.0489C133.333 41.5168 133.844 43.3801 135.009 44.5181C136.175 45.656 137.868 46.1354 139.498 46.1128C141.128 46.0902 142.717 45.6133 144.25 45.0595C148.442 43.5453 152.412 41.4211 155.997 38.775C153.675 38.1338 152.156 35.4275 152.821 33.1161C153.361 31.2359 155.014 29.9245 156.139 28.3228C158.077 25.565 158.399 21.9298 157.758 18.6231C157.116 15.3164 155.606 12.2511 154.112 9.23138C153.639 8.2768 153.156 7.30607 152.419 6.53636C151.682 5.76667 150.638 5.21524 149.578 5.32551C147.817 5.50851 146.693 7.43774 146.681 9.20459C146.669 10.9714 147.446 12.632 148.034 14.2982C148.641 16.0148 149.063 17.8345 148.9 19.6476C148.764 21.167 148.21 22.647 147.316 23.8838C146.625 24.839 145.745 25.6406 144.994 26.5492C144.413 27.2517 143.898 28.0474 143.745 28.9454C143.468 30.5795 144.428 32.2329 144.165 33.8694C143.886 35.5993 142.063 36.9237 140.328 36.6556" fill="#2F2E41"/>
<path d="M98.7203 235.198C125.787 235.198 147.729 213.295 147.729 186.276C147.729 159.257 125.787 137.353 98.7203 137.353C71.6536 137.353 49.7117 159.257 49.7117 186.276C49.7117 213.295 71.6536 235.198 98.7203 235.198Z" fill="#009EDD"/>
<path d="M112.404 136.518C111.81 140.758 109.138 143.889 106.435 143.511C103.732 143.134 102.023 139.391 102.617 135.15C102.831 133.453 103.45 131.831 104.42 130.421L107.162 112.489L115.565 113.953L111.969 131.476C112.516 133.098 112.665 134.827 112.404 136.518Z" fill="#FFB6B6"/>
<path d="M119.715 44.713C119.715 44.713 111.067 41.8352 109.913 52.1952C108.76 62.5552 107.607 75.2175 107.607 75.2175C107.607 75.2175 102.418 87.3041 104.724 93.6353C107.031 99.9664 111.067 95.5523 107.031 100.925C102.995 106.298 103.557 123.974 103.557 123.974L116.544 123.322C116.544 123.322 123.751 75.793 123.751 74.6419C123.751 73.4908 119.715 44.7129 119.715 44.7129V44.713Z" fill="#E6E6E6"/>
<path d="M175.93 134.594C176.091 138.872 174.01 142.422 171.283 142.524C168.556 142.625 166.215 139.24 166.055 134.961C165.968 133.252 166.291 131.548 166.999 129.99L166.547 111.855L175.077 111.825L174.616 129.705C175.439 131.207 175.89 132.883 175.93 134.594V134.594Z" fill="#FFB6B6"/>
<path d="M162.616 44.5186C162.616 44.5186 171.315 41.7955 172.283 52.1744C173.25 62.5533 174.177 81.5653 174.177 81.5653C174.177 81.5653 179.149 93.7426 176.729 100.032C174.31 106.321 170.354 101.835 174.293 107.279C178.232 112.723 176.818 128.074 176.818 128.074L163.845 127.19C163.845 127.19 158.025 81.8528 158.045 80.7019C158.066 79.5509 162.616 44.5186 162.616 44.5186V44.5186Z" fill="#E6E6E6"/>
<path d="M133.559 182.332H126.328C125.203 175.702 121.731 169.699 116.547 165.417C104.616 155.562 86.9554 157.246 77.101 169.177C77.0674 169.215 77.035 169.254 77.004 169.294C76.2166 170.315 76.4057 171.78 77.4264 172.568C78.4468 173.355 79.9126 173.166 80.7002 172.146C84.981 166.959 91.4605 163.659 98.7056 163.659C109.798 163.66 119.358 171.464 121.58 182.332H115.203C114.93 182.332 114.666 182.427 114.457 182.602C113.962 183.015 113.894 183.75 114.307 184.246L123.485 195.263C123.53 195.317 123.579 195.367 123.634 195.412C124.129 195.824 124.865 195.758 125.277 195.263L134.455 184.246C134.63 184.036 134.725 183.772 134.725 183.499C134.726 182.855 134.203 182.332 133.559 182.332V182.332Z" fill="white"/>
<path d="M119.985 201.432C118.964 200.645 117.498 200.834 116.711 201.854C113.315 205.966 108.615 208.791 103.391 209.861C90.7569 212.447 78.4179 204.302 75.8311 191.668H82.208C82.8525 191.668 83.3748 191.145 83.3746 190.501C83.3745 190.228 83.2788 189.964 83.1043 189.754L73.9264 178.737C73.5137 178.242 72.7777 178.175 72.2828 178.588C72.2287 178.633 72.1789 178.683 72.1339 178.737L62.956 189.754C62.5437 190.25 62.6107 190.985 63.106 191.398C63.3156 191.573 63.5796 191.668 63.8525 191.668H71.0835C72.2086 198.298 75.68 204.301 80.8644 208.583C92.7953 218.438 110.456 216.754 120.31 204.823C120.344 204.785 120.376 204.746 120.407 204.706C121.195 203.685 121.006 202.22 119.985 201.432H119.985V201.432Z" fill="white"/>
</svg>
